<svg width="75" height="96" viewBox="0 0 75 96" fill="none" xmlns="http://www.w3.org/2000/svg">
<rect x="0.762695" y="12.7421" width="68.6149" height="82.2775" rx="5" fill="#3F4252"/>
<path d="M74.5256 83.2569C74.5256 86.0183 72.287 88.2569 69.5256 88.2569H12.4873C9.72588 88.2569 7.4873 86.0183 7.4873 83.2569V5.2691C7.4873 2.50768 9.72588 0.269104 12.4873 0.269104H51.5051C52.8312 0.269104 54.1029 0.795888 55.0406 1.73357L73.0611 19.7541C73.9988 20.6918 74.5256 21.9636 74.5256 23.2896V83.2569Z" fill="#7C838C"/>
<rect x="18.6133" y="36.9781" width="18.7687" height="6.28484" rx="2" fill="#3F4252"/>
<rect x="18.6133" y="46.196" width="42.8191" height="4.02011" rx="2" fill="#3F4252"/>
<rect x="18.6133" y="53.8808" width="42.819" height="4.02011" rx="2" fill="#3F4252"/>
<rect x="18.6133" y="61.5657" width="42.819" height="4.02011" rx="2" fill="#3F4252"/>
<path d="M74.5256 21.2351H53.5596V0.269104L74.5256 21.2351Z" fill="#B4B7BC"/>
</svg>
